<svg width="20" height="19" viewBox="0 0 20 19" fill="none" xmlns="http://www.w3.org/2000/svg">
<path d="M8.00542 3.92633C8.762 2.07769 9.14029 1.15337 9.75488 1.02526C9.91649 0.991579 10.0835 0.991579 10.2451 1.02526C10.8597 1.15337 11.238 2.07769 11.9946 3.92633C12.4248 4.97762 12.64 5.50327 13.0425 5.86079C13.1554 5.96107 13.278 6.05038 13.4085 6.12747C13.8737 6.40231 14.4545 6.45329 15.6161 6.55525C17.5824 6.72785 18.5656 6.81415 18.8659 7.36359C18.928 7.47738 18.9703 7.60059 18.9909 7.72808C19.0905 8.34368 18.3677 8.98819 16.9221 10.2772L16.5207 10.6352C15.8449 11.2378 15.507 11.5391 15.3115 11.9152C15.1943 12.1407 15.1156 12.3837 15.0788 12.6342C15.0174 13.0519 15.1164 13.4891 15.3143 14.3633L15.385 14.6757C15.7399 16.2435 15.9173 17.0274 15.6958 17.4127C15.4968 17.7588 15.1303 17.9804 14.7254 17.9994C14.2747 18.0205 13.6396 17.5132 12.3694 16.4988C11.5325 15.8304 11.1141 15.4962 10.6496 15.3657C10.2251 15.2464 9.77492 15.2464 9.35043 15.3657C8.88592 15.4962 8.46749 15.8304 7.63062 16.4988C6.3604 17.5132 5.7253 18.0205 5.27456 17.9994C4.86968 17.9804 4.50317 17.7588 4.30419 17.4127C4.08267 17.0274 4.26012 16.2435 4.61503 14.6757L4.68574 14.3633C4.88365 13.4891 4.9826 13.0519 4.92119 12.6342C4.88436 12.3837 4.80574 12.1407 4.6885 11.9152C4.49304 11.5391 4.15513 11.2378 3.4793 10.6352L3.07787 10.2772C1.6323 8.98819 0.909521 8.34368 1.00906 7.72808C1.02967 7.60059 1.07195 7.47738 1.13413 7.36359C1.43437 6.81415 2.41755 6.72785 4.38391 6.55525C5.5455 6.45329 6.12629 6.40231 6.59155 6.12747C6.72204 6.05038 6.84461 5.96107 6.95751 5.86079C7.36005 5.50327 7.57517 4.97762 8.00542 3.92633Z" fill="#E8DE00" stroke="#DCD300" stroke-width="0.5"/>
</svg>
